<svg width="240" height="240" viewBox="0 0 240 240" fill="none" xmlns="http://www.w3.org/2000/svg">
<g clip-path="url(#clip0_13_896)">
<rect width="240" height="240" rx="30" fill="#486CB1"/>
<path d="M-40.0907 76.5708C-41.3231 75.0184 -43.5796 74.7579 -45.1304 75.9891L-61 56C-48.4211 46.0134 -30.1196 48.1257 -20.1225 60.7178L12.8564 102.258C14.0889 103.81 16.3453 104.071 17.8961 102.839C19.447 101.608 19.7049 99.3514 18.4725 97.7991L-14.5065 56.2592C-24.5036 43.6671 -22.4105 25.3634 -9.83144 15.3767C2.74733 5.39024 21.0487 7.50259 31.0457 20.0947L64.0247 61.6346C65.2572 63.187 67.5139 63.4473 69.0645 62.2162C70.6151 60.9851 70.8734 58.7282 69.6409 57.1758L36.6619 15.636C26.6649 3.04382 28.7578 -15.2598 41.3365 -25.2462C53.9159 -35.2331 72.2172 -33.1207 82.2143 -20.5286L115.193 21.0113C116.426 22.5636 118.682 22.8244 120.233 21.5929C121.784 20.3618 122.042 18.1048 120.809 16.5525L87.8305 -24.9874C77.8335 -37.5795 79.9263 -55.8831 92.5051 -65.8695L108.375 -45.8804C106.824 -44.6493 106.566 -42.3924 107.798 -40.84L140.777 0.699825C150.774 13.2919 148.681 31.5956 136.103 41.582C123.523 51.5689 105.222 49.4564 95.2249 36.8644L62.2459 -4.67547C61.0135 -6.22783 58.7574 -6.48859 57.2062 -5.25707C55.6555 -4.026 55.3973 -1.76905 56.6297 -0.216692L89.6087 41.3232C99.6057 53.9152 97.5129 72.2189 84.9341 82.2053C72.3553 92.1917 54.0539 90.0793 44.0569 77.4873L11.078 35.9474C9.84551 34.395 7.5888 34.1347 6.03817 35.3658C4.48696 36.5973 4.2293 38.8538 5.46174 40.4062L38.4407 81.946C48.4377 94.5381 46.3446 112.842 33.7657 122.829C21.1868 132.815 2.88527 130.703 -7.11169 118.111L-40.0907 76.5708Z" fill="#F57ADA" fill-opacity="0.8"/>
<path d="M17.1078 193L8.4733 201.126L15.8009 217.875L19.546 214.351L26.8492 228.364L23.3106 202.926L19.4615 206.548L17.1078 193Z" fill="#00EDED" fill-opacity="0.95"/>
<path d="M135.498 245.682C118.277 242.413 108.924 226.589 117.524 214.21C132.255 193.006 163.899 197.418 182.044 184.409C192.238 177.1 205.423 170.005 218.425 172.921C228.314 175.141 238.432 182.828 237.662 197.17C236.891 211.511 228.694 216.621 236.285 230.718C241.998 241.331 243.41 245.828 240.24 251.362C233.375 263.349 207.864 252.767 198.171 248.465C178.116 239.565 156.169 249.61 135.498 245.682Z" fill="#D6CB6F"/>
<path d="M215.293 67.3196C211.699 63.0569 212.123 57.5288 213.017 51.9922C207.369 51.9313 201.876 51.4082 198.294 47.1596C194.272 42.3896 194.86 35.2549 199.604 31.2547C204.348 27.2545 211.479 27.8803 215.501 32.6502C219.097 36.9144 218.689 42.5859 217.842 47.9234C223.241 47.9908 228.906 48.5475 232.5 52.8102C236.523 57.5805 235.935 64.7148 231.191 68.715C226.446 72.7153 219.314 72.0878 215.293 67.3196ZM217.154 52.0047C216.32 57.0371 215.843 61.6237 218.422 64.6814C220.992 67.73 225.538 68.1404 228.557 65.5946C231.574 63.0502 231.939 58.4996 229.369 55.451C226.754 52.3468 222.168 52.0312 217.154 52.0047ZM212.371 35.2898C209.801 32.2414 205.254 31.8318 202.236 34.3764C199.217 36.9222 198.854 41.4717 201.424 44.52C204.016 47.5934 208.646 47.8876 213.706 47.9095C214.521 42.9627 214.986 38.3911 212.371 35.2898Z" fill="#59E670"/>
<path d="M79.4696 101.762C78.1543 102.135 76.7081 102.55 75.1309 103.008C73.5538 103.467 72.1344 103.879 70.8727 104.245C70.8781 102.45 70.8867 100.682 70.8985 98.9408C70.882 97.4202 70.8386 95.9029 70.7685 94.3886C70.752 92.8681 70.734 91.5652 70.7145 90.48L63.7162 91.3068L61.8671 103.27C60.7063 103.571 59.3341 103.923 57.7507 104.328C56.1609 104.679 54.6783 105.017 53.303 105.342C51.6123 105.76 49.9484 106.174 48.3113 106.585C49.6137 99.1989 50.902 91.9235 52.1762 84.7585C52.6921 81.7613 53.219 78.6268 53.7568 75.3551C54.3483 72.077 54.9162 68.829 55.4604 65.6109C56.0518 62.3329 56.6055 59.1952 57.1214 56.198C57.6374 53.2008 58.0745 50.4575 58.4329 47.9683C62.0479 47.2693 65.7101 46.5104 69.4197 45.6915C73.1829 44.8663 76.8229 43.9197 80.3399 42.8517C80.3818 44.5868 80.4475 46.754 80.5371 49.3535C80.674 51.8929 80.8394 54.6737 81.0333 57.6959C81.2272 60.718 81.437 63.8742 81.6626 67.1644C81.8882 70.4547 82.1074 73.6913 82.3204 76.8743C82.9265 84.3065 83.5598 92.1977 84.22 100.548C82.6429 101.006 81.0594 101.411 79.4696 101.762ZM64.6964 83.0346C64.9109 83.0093 65.2863 82.9649 65.8226 82.9016C66.4061 82.7783 66.9929 82.6817 67.5828 82.6121C68.22 82.4824 68.8067 82.3859 69.343 82.3225C69.8729 82.2056 70.2419 82.1076 70.4501 82.0286C70.4121 81.7068 70.3756 81.1674 70.3405 80.4103C70.3527 79.5932 70.3286 78.6989 70.2682 77.7272C70.2551 76.6957 70.2324 75.5836 70.2003 74.3912C70.1682 73.1987 70.1392 72.033 70.1134 70.8942C70.0048 68.1339 69.9245 65.1527 69.8725 61.9507L69.5283 54.8954L68.3312 55.1184L67.2984 62.2548L64.6964 83.0346ZM90.9089 100.818L92.699 84.2123C92.4265 81.9063 92.0783 79.419 91.6543 76.7503C91.2775 74.0217 90.8472 71.2994 90.3632 68.5834C89.8792 65.8674 89.4078 63.2587 88.9492 60.7573C88.4842 58.2022 88.084 55.9657 87.7487 54.0478C87.407 52.0762 87.1129 50.5069 86.8662 49.3398C86.6196 48.1727 86.4963 47.5891 86.4963 47.5891L99.0189 41.0527L100.178 50.8665C100.337 52.2071 100.498 53.5746 100.663 54.9689C100.828 56.3632 100.962 57.7339 101.067 59.0809C101.226 60.4216 101.374 61.6818 101.514 62.8616C101.653 64.0414 101.77 65.0335 101.865 65.8379C102.347 63.9322 102.912 61.5817 103.561 58.7863C104.263 55.9846 104.894 53.2728 105.454 50.651C106.125 47.5811 106.803 44.3472 107.489 40.9492L120.29 42.2916C118.529 47.176 116.818 52.0272 115.158 56.8452C114.481 58.9371 113.76 61.1158 112.994 63.3813C112.222 65.5931 111.454 67.8317 110.688 70.0972C109.916 72.309 109.165 74.4641 108.434 76.5623C107.703 78.6606 107.037 80.6152 106.435 82.4263C106.332 83.8523 106.164 85.4219 105.931 87.135C105.752 88.8418 105.564 90.4681 105.366 92.014C105.092 93.8407 104.792 95.6706 104.465 97.5037L90.9089 100.818ZM145.142 94.003C143.826 94.3759 142.38 94.7914 140.803 95.2496C139.226 95.7078 137.807 96.1202 136.545 96.4868C136.55 94.6918 136.559 92.9235 136.571 91.1821C136.554 89.6616 136.511 88.1442 136.441 86.6299C136.424 85.1094 136.406 83.8065 136.387 82.7213L129.388 83.5481L127.539 95.5117C126.378 95.8119 125.006 96.1643 123.423 96.5689C121.833 96.9199 120.35 97.2581 118.975 97.5838C117.284 98.001 115.621 98.4151 113.983 98.826C115.286 91.4402 116.574 84.1648 117.848 76.9998C118.364 74.0026 118.891 70.8681 119.429 67.5964C120.021 64.3184 120.588 61.0703 121.133 57.8522C121.724 54.5742 122.278 51.4366 122.794 48.4393C123.31 45.4421 123.747 42.6989 124.105 40.2096C127.72 39.5107 131.382 38.7517 135.092 37.9328C138.855 37.1076 142.495 36.161 146.012 35.093C146.054 36.8281 146.12 38.9953 146.209 41.5948C146.346 44.1342 146.512 46.915 146.706 49.9372C146.899 52.9593 147.109 56.1155 147.335 59.4057C147.56 62.696 147.78 65.9326 147.993 69.1156C148.599 76.5478 149.232 84.439 149.892 92.7892C148.315 93.2475 146.732 93.652 145.142 94.003ZM130.369 75.2759C130.583 75.2506 130.958 75.2062 131.495 75.1429C132.078 75.0196 132.665 74.9231 133.255 74.8534C133.892 74.7237 134.479 74.6272 135.015 74.5639C135.545 74.4469 135.914 74.3489 136.122 74.2699C136.084 73.9482 136.048 73.4087 136.013 72.6516C136.025 71.8345 136.001 70.9402 135.94 69.9686C135.927 68.937 135.905 67.8249 135.872 66.6325C135.84 65.44 135.811 64.2744 135.786 63.1355C135.677 60.3752 135.597 57.394 135.545 54.192L135.2 47.1367L134.003 47.3597L132.971 54.4961L130.369 75.2759ZM150.979 95.3524C151.676 87.44 152.32 79.7785 152.913 72.3678C153.082 69.1941 153.265 65.9099 153.462 62.5153C153.713 59.1144 153.916 55.7735 154.072 52.4925C154.222 49.1579 154.337 45.9905 154.418 42.9903C154.492 39.9365 154.494 37.1904 154.423 34.7518C155.127 34.7231 155.72 34.6802 156.202 34.6232C156.685 34.5661 157.248 34.4996 157.892 34.4236C158.642 34.3349 159.554 34.2272 160.627 34.1005C161.693 33.9201 162.759 33.7398 163.825 33.5595C164.891 33.3791 166.038 33.1893 167.265 32.9899C168.459 36.6551 169.557 40.1958 170.559 43.6118C171.51 46.5989 172.471 49.6664 173.441 52.8143C174.464 55.9559 175.351 58.6243 176.099 60.8197C176.187 59.7218 176.283 58.4598 176.386 57.0339C176.483 55.5542 176.601 54.0178 176.739 52.4246C176.877 50.8314 176.988 49.2414 177.072 47.6546C177.204 46.0077 177.339 44.3877 177.477 42.7945C177.816 39.2201 178.169 35.5352 178.536 31.7399L188.208 29.3738C187.354 37.7942 186.663 45.7602 186.137 53.2718C185.867 56.5118 185.604 59.8055 185.347 63.1528C185.137 66.4401 184.942 69.617 184.76 72.6835C184.572 75.6963 184.443 78.5119 184.371 81.1304C184.294 83.6952 184.249 85.8483 184.237 87.5897C184.076 87.6087 183.449 87.8188 182.354 88.22C181.307 88.5612 180.079 88.9783 178.669 89.4711C177.312 89.9576 175.929 90.4472 174.519 90.9401C173.163 91.4265 172.152 91.845 171.487 92.1955C170.658 87.9434 169.828 83.9089 168.996 80.0921C168.639 78.4487 168.252 76.7816 167.835 75.0909C167.465 73.3402 167.077 71.6731 166.673 70.0897C166.268 68.5062 165.876 67.03 165.497 65.661C165.118 64.292 164.761 63.1108 164.426 62.1172C164.385 63.1551 164.31 64.3603 164.201 65.7326C164.091 67.105 163.991 68.5578 163.9 70.091C163.809 71.6242 163.728 73.2379 163.656 74.932C163.578 76.5725 163.467 78.1626 163.322 79.7021C163.05 83.3775 162.743 87.2201 162.401 91.2299L150.979 95.3524ZM27.5668 196.531C28.175 188.792 28.7518 181.247 29.2971 173.896C29.4786 170.83 29.6711 167.626 29.8745 164.285C30.1252 160.884 30.3318 157.57 30.4943 154.343C30.6504 151.062 30.7687 147.921 30.8493 144.921C30.9771 141.861 31.0294 139.082 31.0061 136.583C32.6559 136.28 34.252 135.982 35.7945 135.691C37.1762 135.419 38.5878 135.171 40.0294 134.946C41.4646 134.668 42.739 134.409 43.8525 134.168C45.0375 138.215 46.1199 142.084 47.0996 145.775C47.5578 147.352 48.0255 149.009 48.5028 150.747C49.0273 152.425 49.5186 154.053 49.9768 155.63C50.435 157.207 50.8869 158.731 51.3324 160.201C51.7716 161.617 52.1918 162.872 52.593 163.967C52.6745 162.815 52.7637 161.5 52.8608 160.02C52.9515 158.487 53.0627 156.897 53.1944 155.25C53.3198 153.549 53.442 151.822 53.561 150.068C53.7337 148.308 53.8858 146.604 54.0175 144.957C54.3784 141.108 54.7472 137.095 55.1237 132.918L64.7949 130.552C63.9219 138.812 63.2128 146.617 62.6674 153.968C62.3914 157.154 62.1185 160.367 61.8488 163.607C61.6327 166.841 61.4307 169.964 61.2429 172.977C61.0551 175.99 60.9224 178.779 60.8448 181.344C60.7608 183.855 60.713 185.981 60.7012 187.722C60.5403 187.741 59.9126 187.952 58.8181 188.353C57.7709 188.694 56.5424 189.111 55.1325 189.604C53.7762 190.09 52.3962 190.607 50.9927 191.153C49.6364 191.64 48.6223 192.031 47.9505 192.328C47.0619 188.029 46.1719 183.947 45.2804 180.083C44.9231 178.439 44.5326 176.746 44.1091 175.001C43.6855 173.257 43.2714 171.593 42.8668 170.01C42.5159 168.42 42.1508 166.94 41.7715 165.571C41.4396 164.142 41.1362 162.955 40.8612 162.009C40.8144 162.993 40.7393 164.198 40.6359 165.624C40.5325 167.05 40.4417 168.583 40.3637 170.224C40.2793 171.811 40.2044 173.478 40.139 175.226C40.0672 176.92 39.9655 178.59 39.8338 180.237C39.5865 184.127 39.3046 188.184 38.988 192.408L27.5668 196.531ZM92.8983 186.773C91.583 187.146 90.1368 187.562 88.5596 188.02C86.9825 188.478 85.5631 188.891 84.3014 189.257C84.3068 187.462 84.3154 185.694 84.3272 183.952C84.3106 182.432 84.2673 180.914 84.1972 179.4C84.1807 177.88 84.1627 176.577 84.1432 175.492L77.1449 176.318L75.2958 188.282C74.135 188.582 72.7628 188.935 71.1794 189.339C69.5896 189.69 68.107 190.028 66.7317 190.354C65.041 190.771 63.3771 191.185 61.74 191.596C63.0424 184.21 64.3307 176.935 65.6049 169.77C66.1208 166.773 66.6477 163.638 67.1855 160.367C67.777 157.089 68.3449 153.841 68.889 150.623C69.4805 147.344 70.0342 144.207 70.5501 141.21C71.066 138.212 71.5032 135.469 71.8616 132.98C75.4766 132.281 79.1388 131.522 82.8484 130.703C86.6116 129.878 90.2516 128.931 93.7686 127.863C93.8105 129.598 93.8762 131.766 93.9658 134.365C94.1027 136.905 94.2681 139.685 94.462 142.707C94.6559 145.73 94.8657 148.886 95.0913 152.176C95.3169 155.466 95.5361 158.703 95.7491 161.886C96.3552 169.318 96.9885 177.209 97.6487 185.56C96.0716 186.018 94.4881 186.422 92.8983 186.773ZM78.1251 168.046C78.3396 168.021 78.715 167.977 79.2513 167.913C79.8348 167.79 80.4216 167.693 81.0115 167.624C81.6487 167.494 82.2354 167.397 82.7717 167.334C83.3016 167.217 83.6706 167.119 83.8788 167.04C83.8408 166.718 83.8043 166.179 83.7692 165.422C83.7814 164.605 83.7573 163.71 83.6969 162.739C83.6838 161.707 83.6611 160.595 83.629 159.403C83.5969 158.21 83.5679 157.045 83.5421 155.906C83.4335 153.145 83.3532 150.164 83.3012 146.962L82.957 139.907L81.7599 140.13L80.7271 147.266L78.1251 168.046ZM138.425 151.95C138.696 157.465 138.187 162.364 136.899 166.649C135.605 170.88 133.859 174.512 131.661 177.545C129.518 180.571 127.077 182.926 124.339 184.608C121.656 186.285 119.027 187.275 116.453 187.579C114.468 187.814 112.514 187.61 110.589 186.967C108.718 186.318 107.011 185.215 105.468 183.657C103.971 182.039 102.693 179.961 101.631 177.422C100.57 174.883 99.8306 171.844 99.4124 168.304C98.5951 161.387 98.8745 155.236 100.25 149.854C101.626 144.471 103.613 139.886 106.211 136.099C108.862 132.306 111.806 129.376 115.041 127.308C118.331 125.233 121.477 124.019 124.48 123.664C126.625 123.411 128.52 123.567 130.163 124.134C131.861 124.695 133.295 125.559 134.466 126.726C135.631 127.839 136.529 129.228 137.161 130.893C137.84 132.499 138.29 134.24 138.512 136.117L127.739 139.51C127.003 137.422 126.179 135.97 125.266 135.153C124.354 134.336 123.389 133.988 122.37 134.109C121.029 134.267 119.669 135.407 118.288 137.527C116.901 139.594 115.687 142.212 114.648 145.38C113.608 148.547 112.818 151.985 112.277 155.692C111.737 159.399 111.619 163.002 111.923 166.5C112.316 169.825 113.081 172.154 114.217 173.488C115.401 174.762 116.77 175.307 118.325 175.124C119.398 174.997 120.465 174.599 121.528 173.93C122.645 173.254 123.602 172.38 124.399 171.307C125.191 170.18 125.805 168.938 126.243 167.582C126.728 166.165 126.906 164.676 126.775 163.114L118.32 165.418L118.908 157.274C121.39 156.654 123.819 156.041 126.194 155.434C128.201 154.925 130.308 154.35 132.516 153.709C134.777 153.061 136.747 152.475 138.425 151.95ZM178.333 134.185C178.853 138.583 178.861 142.796 178.358 146.825C177.903 150.793 177.091 154.505 175.922 157.96C174.747 161.362 173.266 164.473 171.479 167.294C169.738 170.055 167.85 172.481 165.813 174.57C163.77 176.606 161.652 178.243 159.46 179.48C157.262 180.664 155.117 181.38 153.026 181.627C151.256 181.836 149.609 181.705 148.085 181.232C146.555 180.706 145.178 179.863 143.953 178.702C142.722 177.488 141.664 175.901 140.78 173.939C139.943 171.917 139.354 169.458 139.011 166.562C138.657 163.559 138.658 160.351 139.016 156.937C139.374 153.524 140.003 150.105 140.904 146.682C141.805 143.259 143.019 139.961 144.548 136.79C146.076 133.619 147.833 130.774 149.82 128.256C151.8 125.684 153.997 123.575 156.413 121.93C158.829 120.286 161.431 119.299 164.22 118.969C166.633 118.684 168.677 118.959 170.353 119.794C172.076 120.569 173.461 121.711 174.509 123.218C175.605 124.666 176.457 126.359 177.067 128.299C177.677 130.239 178.099 132.201 178.333 134.185ZM150.75 163.055C150.82 163.645 151 164.249 151.29 164.867C151.581 165.485 151.942 166.013 152.375 166.452C152.807 166.89 153.314 167.265 153.894 167.577C154.522 167.829 155.158 167.917 155.801 167.841C158.215 167.556 160.262 166.472 161.942 164.587C163.623 162.703 164.937 160.482 165.885 157.923C166.834 155.364 167.468 152.679 167.788 149.868C168.162 147.05 168.216 144.516 167.95 142.263C167.874 141.62 167.738 140.929 167.542 140.191C167.4 139.446 167.157 138.768 166.813 138.156C166.522 137.538 166.083 137.046 165.496 136.681C164.957 136.255 164.258 136.093 163.4 136.194C161.684 136.397 160.152 137.013 158.806 138.042C157.459 139.071 156.282 140.379 155.273 141.967C154.312 143.494 153.51 145.22 152.867 147.145C152.218 149.016 151.683 150.928 151.261 152.881C150.886 154.774 150.67 156.621 150.61 158.422C150.551 160.224 150.598 161.768 150.75 163.055ZM178.43 178.381C179.035 171.078 179.606 163.941 180.142 156.972C180.282 154.02 180.464 150.953 180.686 147.773C180.902 144.539 181.071 141.366 181.192 138.252C181.361 135.078 181.492 132.045 181.586 129.152C181.726 126.199 181.791 123.527 181.78 121.136C184.723 119.809 187.939 118.722 191.427 117.875C194.91 116.975 198.394 116.318 201.88 115.906C203.971 115.659 205.716 115.698 207.113 116.022C208.565 116.34 209.72 116.91 210.578 117.733C211.484 118.496 212.167 119.449 212.628 120.591C213.09 121.732 213.406 123.027 213.577 124.475C213.83 126.62 213.705 128.783 213.201 130.963C212.691 133.09 211.904 135.167 210.838 137.196C209.82 139.165 208.572 141.026 207.093 142.777C205.662 144.469 204.065 145.908 202.302 147.095C203.521 149.126 204.818 151.366 206.195 153.813C207.619 156.2 208.95 158.49 210.187 160.682C211.577 163.237 212.993 165.788 214.436 168.336L202.481 174.153C201.003 170.848 199.657 167.744 198.444 164.842C197.923 163.653 197.399 162.437 196.872 161.195C196.338 159.898 195.84 158.679 195.379 157.538C194.918 156.396 194.526 155.382 194.204 154.495C193.876 153.556 193.65 152.794 193.526 152.21L192.519 152.656C192.4 154.41 192.235 156.468 192.025 158.831C191.868 161.188 191.729 163.461 191.607 165.65C191.422 168.228 191.24 170.832 191.062 173.463L178.43 178.381ZM193.209 141.237C194.215 141.009 195.398 140.434 196.757 139.512C198.17 138.584 199.486 137.532 200.707 136.354C201.921 135.123 202.944 133.888 203.776 132.648C204.608 131.407 204.974 130.358 204.872 129.5C204.803 128.91 204.561 128.477 204.148 128.199C203.728 127.868 203.16 127.663 202.444 127.585C201.775 127.446 201.035 127.398 200.224 127.439C199.414 127.481 198.579 127.552 197.721 127.653C197.131 127.723 196.518 127.823 195.881 127.952C195.291 128.022 194.754 128.086 194.272 128.143L193.209 141.237ZM227.326 170.892C226.843 170.949 225.887 171.143 224.458 171.475C223.077 171.747 221.648 172.079 220.172 172.471C218.689 172.809 217.341 173.132 216.126 173.438C214.965 173.739 214.335 173.922 214.234 173.988C214.498 171.619 214.733 169.008 214.94 166.156C215.194 163.244 215.435 160.225 215.664 157.099C215.886 153.919 216.079 150.715 216.241 147.488C216.404 144.26 216.552 141.143 216.686 138.137C217.002 131.139 217.295 123.954 217.565 116.582L229.877 113.088C229.492 120.42 229.119 127.614 228.756 134.672C228.622 137.678 228.474 140.795 228.311 144.022C228.202 147.243 228.063 150.441 227.895 153.615C227.78 156.782 227.682 159.866 227.601 162.866C227.514 165.812 227.422 168.488 227.326 170.892Z" fill="white"/>
</g>
<defs>
<clipPath id="clip0_13_896">
<rect width="240" height="240" rx="30" fill="white"/>
</clipPath>
</defs>
</svg>
